<svg id="Layer_1" data-name="Layer 1" xmlns="http://www.w3.org/2000/svg" viewBox="0 0 164.23 132.36"><defs><style>.cls-1{fill:#1566eb;}</style></defs><title>Artboard 3</title><path class="cls-1" d="M83.81,65.84A12.82,12.82,0,0,0,83.47,64a3.75,3.75,0,0,1-3.74-3.6,3.43,3.43,0,0,1,.84-2.24,17.94,17.94,0,0,0-12.95-6.63c-10.25-.65-18.79,6.8-18.79,16.09V87.84c0,5.47,5.08,9.85,11.14,9.36a9.86,9.86,0,0,0,9.28-9.57V85.18a2.07,2.07,0,0,1,1.63-2A18,18,0,0,0,78,79.7a3.25,3.25,0,0,1-.36-1.49,3.78,3.78,0,0,1,3.93-3.61,3.08,3.08,0,0,1,.61.05A15.1,15.1,0,0,0,83.81,65.84ZM65.59,74.6a6.29,6.29,0,1,1,6.8-6.26A6.56,6.56,0,0,1,65.59,74.6Z"/><path class="cls-1" d="M99.75,83.18a3.11,3.11,0,0,0-2.36,3v2c0,2.94-2.12,10-11.22,9.78-5.76-.16-10.28-4.59-10.28-9.84V85.28A21.25,21.25,0,0,0,81,81.78a4,4,0,0,0,4.52-3.57A3.34,3.34,0,0,0,85,76.48h0a18.1,18.1,0,0,0,2.06-8.38A17.83,17.83,0,0,0,86.33,63a3.44,3.44,0,0,0,1.25-2.63,3.78,3.78,0,0,0-3.93-3.61,4.07,4.07,0,0,0-.5,0A19.77,19.77,0,0,0,81.55,55a19.5,19.5,0,0,1,14.16-4.66c9.05.58,16.39,7.23,17.06,15.48S107.75,81,99.75,83.18Z"/><path class="cls-1" d="M70.3,68.34a4.53,4.53,0,0,1-4.71,4.33A4.84,4.84,0,0,1,61.9,71a2.19,2.19,0,0,0,1.59.67,1.94,1.94,0,1,0-2.09-1.93,1.79,1.79,0,0,0,.34,1.06,4.1,4.1,0,0,1-.87-2.5,4.73,4.73,0,0,1,9.43,0Z"/><path class="cls-1" d="M76.31,35.08,70.63,47.31a1.89,1.89,0,0,0,2.09,2.57s5.68-1.46,7.5-1.66,6.86.07,6.86.07a1.83,1.83,0,0,0,1.37-2.95L79.77,34.7A2.1,2.1,0,0,0,76.31,35.08Z"/><ellipse class="cls-1" cx="83.65" cy="60.39" rx="2.36" ry="2.17"/><ellipse class="cls-1" cx="81.82" cy="77.97" rx="2.09" ry="1.93"/></svg>