<svg id="Layer_1" data-name="Layer 1" xmlns="http://www.w3.org/2000/svg" viewBox="0 0 270.59 220.6"><defs><style>.cls-1{fill:#1566eb;}</style></defs><title>Artboard 2</title><path class="cls-1" d="M158.41,104.78a32.41,32.41,0,0,0-.85-4.62c-5.21-.21-9.36-4.17-9.36-9a8.51,8.51,0,0,1,2.12-5.58A45,45,0,0,0,117.94,69c-25.63-1.62-47,17-47,40.24v50.58c0,13.67,12.7,24.61,27.85,23.38C112.07,182.1,122,171.51,122,159.26v-6.13a5.17,5.17,0,0,1,4-4.93,44.92,44.92,0,0,0,17.79-8.76,8.15,8.15,0,0,1-.9-3.73c0-5,4.4-9,9.82-9a8.35,8.35,0,0,1,1.52.13A37.61,37.61,0,0,0,158.41,104.78Zm-45.56,21.89c-9.4,0-17-7-17-15.65s7.62-15.65,17-15.65,17,7,17,15.65S122.25,126.67,112.85,126.67Z"/><path class="cls-1" d="M198.27,148.12a7.84,7.84,0,0,0-5.91,7.42v5.07c0,7.34-5.3,25.08-28,24.45-14.4-.39-25.7-11.47-25.7-24.6v-7.09a52.94,52.94,0,0,0,12.69-8.74,10.28,10.28,0,0,0,1.47.11c5.43,0,9.82-4.05,9.82-9a8.28,8.28,0,0,0-1.21-4.33h0a45.2,45.2,0,0,0,3.32-33.63,8.64,8.64,0,0,0,3.13-6.59c0-5-4.4-9-9.82-9a8.93,8.93,0,0,0-1.27.09,45.6,45.6,0,0,0-4-4.58A48.73,48.73,0,0,1,188.15,66c22.64,1.46,41,18.09,42.67,38.71C232.5,125,218.25,142.58,198.27,148.12Z"/><path class="cls-1" d="M124.63,111c0,6-5.27,10.84-11.78,10.84a12.1,12.1,0,0,1-9.2-4.08,5.41,5.41,0,0,0,4,1.67,4.83,4.83,0,1,0-5.23-4.82,4.49,4.49,0,0,0,.86,2.65,10.2,10.2,0,0,1-2.17-6.26c0-6,5.27-10.84,11.78-10.84S124.63,105,124.63,111Z"/><path class="cls-1" d="M139.66,27.89,125.45,58.46c-1.52,3.28,1.38,6.84,5.23,6.42,0,0,14.2-3.66,18.76-4.16,4.41-.49,17.13.19,17.13.19,3.85-.42,5.76-4.52,3.43-7.37L148.32,26.93A5.25,5.25,0,0,0,139.66,27.89Z"/><ellipse class="cls-1" cx="158.02" cy="91.15" rx="5.89" ry="5.42"/><ellipse class="cls-1" cx="153.44" cy="135.1" rx="5.24" ry="4.82"/></svg>